<svg width="65" height="65" viewBox="0 0 65 65" fill="none" xmlns="http://www.w3.org/2000/svg">
<g clip-path="url(#clip0_3_101)">
<path d="M33.2762 4.05419V0.606467C33.2762 0.274156 33.0052 0 32.6767 0H28.5706C28.2421 0 27.9711 0.274156 27.9711 0.606467V4.04588H33.2762V4.05419Z" fill="#BABABA"/>
<path d="M32.6768 0H32.0198V4.05419H33.2763V0.606467C33.2763 0.274156 33.0053 0 32.6768 0Z" fill="#7F7F7F"/>
<path d="M28.3899 0.0332031C28.1435 0.107973 27.9711 0.332283 27.9711 0.606439V4.04586H28.3899V0.0332031Z" fill="#DFDFDF"/>
<path d="M22.2061 63.9615C22.551 64.5431 23.1751 64.9336 23.8978 64.9336H37.3414C38.064 64.9336 38.6882 64.5431 39.0331 63.9615H22.2061Z" fill="#7F7F7F"/>
<path d="M40.8234 61.6686C40.8234 62.9646 39.7886 64.0114 38.5075 64.0114H22.7316C21.4505 64.0114 20.4158 62.9646 20.4158 61.6686V5.06777C20.4158 3.77175 21.4505 2.72498 22.7316 2.72498H38.5157C39.7968 2.72498 40.8316 3.77175 40.8316 5.06777V61.6686H40.8234Z" fill="#DFDFDF"/>
<path d="M29.4 61.2366C29.4 62.4994 28.3899 63.5296 27.1334 63.5296H22.8959C21.6476 63.5296 20.6293 62.5077 20.6293 61.2366V5.49979C20.6293 4.23701 21.6394 3.20685 22.8959 3.20685H27.1334C28.3817 3.20685 29.4 4.2287 29.4 5.49979V61.2366V61.2366Z" fill="#F3F3F3"/>
<path d="M23.7171 4.09578C23.6514 4.08747 23.5939 4.08747 23.5282 4.07916C22.3539 4.10409 21.4012 5.0761 21.4012 6.27241V60.4557C21.4012 61.652 22.3457 62.624 23.5282 62.6489C23.5939 62.6489 23.6596 62.6406 23.7171 62.6323V4.09578Z" fill="#FDFDFD"/>
<path d="M38.0066 3.72192V63.0145C39.1317 62.9065 40.0104 61.9511 40.0104 60.788V5.94841C40.0104 4.78532 39.1317 3.82992 38.0066 3.72192Z" fill="#BABABA"/>
<path d="M40.8234 35.2914V5.06777C40.8234 3.77175 39.7886 2.72498 38.5075 2.72498H22.7316C21.4505 2.72498 20.4158 3.77175 20.4158 5.06777V35.2831H40.8234V35.2914Z" fill="#8DCA4B"/>
<path d="M29.4 35.2915V5.49979C29.4 4.23701 28.3899 3.20685 27.1334 3.20685H22.8959C21.6476 3.20685 20.6293 4.2287 20.6293 5.49979V35.2915H29.4Z" fill="#B0E968"/>
<path d="M23.7171 35.2915V4.09578C23.6514 4.08747 23.5939 4.08747 23.5282 4.07916C22.3539 4.10409 21.4012 5.0761 21.4012 6.27241V35.2832H23.7171V35.2915Z" fill="#D3FF94"/>
<path d="M40.0104 35.2915V5.94841C40.0104 4.78532 39.1317 3.82992 38.0066 3.72192V35.2915H40.0104V35.2915Z" fill="#51AA02"/>
<path d="M29.9092 40.2761L27.9218 44.7789H30.7961L29.1126 48.7085L27.7822 47.6867L28.1271 52.6049L32.6439 48.7251L30.5908 48.8664L33.6048 43.1174L30.5251 42.8765L31.6913 40.3426L29.9092 40.2761Z" fill="#FF8500"/>
<path d="M30.4512 37.8917C26.1562 37.8917 23.1587 41.3311 23.1587 46.2576C23.1587 51.1842 26.1562 54.6236 30.4512 54.6236C34.7463 54.6236 37.7438 51.1842 37.7438 46.2576C37.7438 41.3311 34.7463 37.8917 30.4512 37.8917ZM30.4512 53.3442C26.5832 53.3442 24.4234 50.1706 24.4234 46.2576C24.4234 42.3447 26.5832 39.1711 30.4512 39.1711C34.3192 39.1711 36.4791 42.3447 36.4791 46.2576C36.4791 50.1706 34.3192 53.3442 30.4512 53.3442Z" fill="#FF8500"/>
<g opacity="0.3">
<path d="M20.4241 43.1506V61.6603C20.4241 62.9563 21.4588 64.0031 22.7399 64.0031H38.5158C39.7969 64.0031 40.8317 62.9563 40.8317 61.6603V43.1506H20.4241Z" fill="#626262"/>
</g>
<path d="M60.1799 57.3651H63.5798C63.9083 57.3651 64.1793 57.091 64.1793 56.7586V52.6048C64.1793 52.2724 63.9083 51.9983 63.5798 51.9983H60.1799V57.3651Z" fill="#BABABA"/>
<path d="M64.1875 56.7504V56.0858H60.1799V57.3568H63.5798C63.9165 57.3652 64.1875 57.091 64.1875 56.7504Z" fill="#7F7F7F"/>
<path d="M64.1547 52.4137C64.0808 52.1645 63.859 51.99 63.588 51.99H60.1881V52.4137H64.1547Z" fill="#DFDFDF"/>
<path d="M0.960841 46.1663C0.385979 46.5152 0 47.1466 0 47.8777V61.4775C0 62.2086 0.385979 62.84 0.960841 63.1889V46.1663Z" fill="#7F7F7F"/>
<path d="M3.23567 65C1.95455 65 0.9198 63.9532 0.9198 62.6572V46.698C0.9198 45.4019 1.95455 44.3552 3.23567 44.3552H59.178C60.4591 44.3552 61.4939 45.4019 61.4939 46.698V62.6572C61.4939 63.9532 60.4591 65 59.178 65H3.23567Z" fill="#DFDFDF"/>
<path d="M3.65454 53.4439C2.40627 53.4439 1.38794 52.422 1.38794 51.1509V46.8641C1.38794 45.6013 2.39805 44.5712 3.65454 44.5712H58.751C59.9993 44.5712 61.0176 45.593 61.0176 46.8641V51.1509C61.0176 52.4137 60.0075 53.4439 58.751 53.4439H3.65454Z" fill="#F3F3F3"/>
<path d="M60.147 47.6866C60.1552 47.6201 60.1553 47.562 60.1635 47.4955C60.1388 46.3075 59.178 45.3438 57.9954 45.3438H4.43465C3.25208 45.3438 2.29124 46.2992 2.2666 47.4955C2.2666 47.562 2.27481 47.6284 2.28303 47.6866H60.147Z" fill="#FDFDFD"/>
<path d="M60.5084 62.1504H1.89709C2.00385 63.2886 2.94827 64.1775 4.098 64.1775H58.3075C59.4655 64.1775 60.4099 63.2802 60.5084 62.1504Z" fill="#BABABA"/>
<path d="M29.3015 65H59.1697C60.4509 65 61.4856 63.9532 61.4856 62.6572V46.698C61.4856 45.4019 60.4509 44.3552 59.1697 44.3552H29.3015V65Z" fill="#8DCA4B"/>
<path d="M29.3015 53.4439H58.7509C59.9992 53.4439 61.0175 52.422 61.0175 51.1509V46.8641C61.0175 45.6013 60.0074 44.5712 58.7509 44.5712H29.3015V53.4439Z" fill="#B0E968"/>
<path d="M29.3015 47.6866H60.1388C60.147 47.6201 60.147 47.562 60.1552 47.4955C60.1306 46.3075 59.1697 45.3438 57.9871 45.3438H29.3015V47.6866Z" fill="#D3FF94"/>
<path d="M29.3015 64.1775H58.3074C59.4572 64.1775 60.4016 63.2886 60.5083 62.1504H29.3015V64.1775V64.1775Z" fill="#51AA02"/>
<path d="M24.3742 53.9507L19.9231 51.9402V54.8562L16.0387 53.1531L17.0488 51.8073L12.1871 52.1479L16.0223 56.7254L15.8827 54.6485L21.5656 57.6975L21.8038 54.5737L24.3085 55.7534L24.3742 53.9507Z" fill="#FF8500"/>
<path d="M26.7311 54.5072C26.7311 50.1623 23.3312 47.1299 18.4613 47.1299C13.5914 47.1299 10.1915 50.1623 10.1915 54.5072C10.1915 58.8522 13.5914 61.8845 18.4613 61.8845C23.3312 61.8762 26.7311 58.8439 26.7311 54.5072ZM11.4562 54.5072C11.4562 50.5943 14.5933 48.4093 18.4613 48.4093C22.3293 48.4093 25.4664 50.5943 25.4664 54.5072C25.4664 58.4202 22.3293 60.6051 18.4613 60.6051C14.5933 60.6051 11.4562 58.4202 11.4562 54.5072Z" fill="#FF8500"/>
</g>
<defs>
<clipPath id="clip0_3_101">
<rect width="64.1875" height="65" fill="white"/>
</clipPath>
</defs>
</svg>
