<svg width="28" height="67" viewBox="0 0 28 67" fill="none" xmlns="http://www.w3.org/2000/svg">
<path d="M26.381 64.5762C26.381 65.319 25.7619 66 24.9571 66H2.42381C1.68095 66 1 65.3809 1 64.5762V59.9333C1 59.1905 1.61905 58.5095 2.42381 58.5095H25.0191C25.7619 58.5095 26.4429 59.1286 26.4429 59.9333V64.5762H26.381Z" fill="white"/>
<path d="M26.381 57.1476C26.381 57.8905 25.7619 58.5714 24.9571 58.5714H2.42381C1.68095 58.5714 1 57.9524 1 57.1476V52.5047C1 51.7619 1.61905 51.0809 2.42381 51.0809H25.0191C25.7619 51.0809 26.4429 51.7 26.4429 52.5047V57.1476H26.381Z" fill="white"/>
<path d="M26.381 49.7191C26.381 50.4619 25.7619 51.1429 24.9571 51.1429H2.42381C1.61905 51.1429 1 50.5238 1 49.7191V45.0762C1 44.3334 1.61905 43.6524 2.42381 43.6524H25.0191C25.7619 43.6524 26.4429 44.2714 26.4429 45.0762V49.7191H26.381Z" fill="white"/>
<path d="M26.381 42.2905C26.381 43.0333 25.7619 43.7143 24.9571 43.7143H2.42381C1.61905 43.7143 1 43.0952 1 42.2905V37.6476C1 36.9048 1.61905 36.2238 2.42381 36.2238H25.0191C25.7619 36.2238 26.4429 36.8429 26.4429 37.6476V42.2905H26.381Z" fill="white"/>
<path d="M26.381 34.8619C26.381 35.6047 25.7619 36.2857 24.9571 36.2857H2.42381C1.61905 36.2857 1 35.6667 1 34.8619V30.219C1 29.4762 1.61905 28.7952 2.42381 28.7952H25.0191C25.7619 28.7952 26.4429 29.4143 26.4429 30.219V34.8619H26.381Z" fill="white"/>
<path d="M26.381 64.5762C26.381 65.319 25.7619 66 24.9571 66H2.42381C1.68095 66 1 65.3809 1 64.5762V59.9333C1 59.1905 1.61905 58.5095 2.42381 58.5095H25.0191C25.7619 58.5095 26.4429 59.1286 26.4429 59.9333V64.5762H26.381Z" stroke="#3D3D3D" stroke-width="2" stroke-miterlimit="10"/>
<path d="M26.381 57.1476C26.381 57.8905 25.7619 58.5714 24.9571 58.5714H2.42381C1.68095 58.5714 1 57.9524 1 57.1476V52.5047C1 51.7619 1.61905 51.0809 2.42381 51.0809H25.0191C25.7619 51.0809 26.4429 51.7 26.4429 52.5047V57.1476H26.381Z" stroke="#3D3D3D" stroke-width="2" stroke-miterlimit="10"/>
<path d="M26.381 49.7191C26.381 50.4619 25.7619 51.1429 24.9571 51.1429H2.42381C1.61905 51.1429 1 50.5238 1 49.7191V45.0762C1 44.3334 1.61905 43.6524 2.42381 43.6524H25.0191C25.7619 43.6524 26.4429 44.2714 26.4429 45.0762V49.7191H26.381Z" stroke="#3D3D3D" stroke-width="2" stroke-miterlimit="10"/>
<path d="M26.381 42.2905C26.381 43.0333 25.7619 43.7143 24.9571 43.7143H2.42381C1.61905 43.7143 1 43.0952 1 42.2905V37.6476C1 36.9048 1.61905 36.2238 2.42381 36.2238H25.0191C25.7619 36.2238 26.4429 36.8429 26.4429 37.6476V42.2905H26.381Z" stroke="#3D3D3D" stroke-width="2" stroke-miterlimit="10"/>
<path d="M26.381 34.8619C26.381 35.6047 25.7619 36.2857 24.9571 36.2857H2.42381C1.61905 36.2857 1 35.6667 1 34.8619V30.219C1 29.4762 1.61905 28.7952 2.42381 28.7952H25.0191C25.7619 28.7952 26.4429 29.4143 26.4429 30.219V34.8619H26.381Z" stroke="#3D3D3D" stroke-width="2" stroke-miterlimit="10"/>
<path d="M17.0952 7.19043H9.66663V10.2857H17.0952V7.19043Z" stroke="#3D3D3D" stroke-width="2" stroke-miterlimit="10"/>
<path d="M25.7619 22.6048V27.4952C25.7619 28.2381 25.3286 28.8571 24.5857 28.8571H2.17619C1.43333 28.8571 1 28.2381 1 27.4952V22.6048C1 21.8 7.74762 10.2857 8.49048 10.2857H18.2714C19.0143 10.2857 25.7619 21.8 25.7619 22.6048Z" fill="#E2E2E2"/>
<path d="M25.7619 22.6048V27.4952C25.7619 28.2381 25.3286 28.8571 24.5857 28.8571H2.17619C1.43333 28.8571 1 28.2381 1 27.4952V22.6048C1 21.8 7.74762 10.2857 8.49048 10.2857H18.2714C19.0143 10.2857 25.7619 21.8 25.7619 22.6048Z" stroke="#3D3D3D" stroke-width="2" stroke-miterlimit="10"/>
<path d="M14.619 66H6.38566C5.64281 66 4.71423 65.4428 4.71423 64.7V59.8095C4.71423 59.0666 5.64281 58.5714 6.38566 58.5714H14.619" stroke="#3D3D3D" stroke-width="2" stroke-miterlimit="10"/>
<path d="M13.9999 58.5714H6.26185C5.519 58.5714 4.71423 57.8905 4.71423 57.2095V52.6286C4.71423 51.8857 5.519 51.2048 6.26185 51.2048H13.9999" stroke="#3D3D3D" stroke-width="2" stroke-miterlimit="10"/>
<path d="M14.619 51.1429H6.38566C5.64281 51.1429 4.71423 50.7095 4.71423 49.9048V45.0143C4.71423 44.2714 5.64281 43.7143 6.38566 43.7143H14.619" stroke="#3D3D3D" stroke-width="2" stroke-miterlimit="10"/>
<path d="M14.619 43.7143H6.38566C5.64281 43.7143 4.71423 43.2809 4.71423 42.4762V37.5857C4.71423 36.8428 5.64281 36.2857 6.38566 36.2857H14.619" stroke="#3D3D3D" stroke-width="2" stroke-miterlimit="10"/>
<path d="M14.619 36.2857H6.38566C5.64281 36.2857 4.71423 35.9143 4.71423 35.1714V30.2809C4.71423 29.5381 5.64281 28.8571 6.38566 28.8571H14.619" stroke="#3D3D3D" stroke-width="2" stroke-miterlimit="10"/>
<path d="M12.1428 28.8571H20.3762C21.119 28.8571 22.0476 28.2999 22.0476 27.5571V22.7904C22.0476 22.0476 18.5809 10.4714 17.7762 10.4714" stroke="#3D3D3D" stroke-width="2" stroke-miterlimit="10"/>
<path d="M14.619 28.8571H6.38566C5.64281 28.8571 4.71423 28.2999 4.71423 27.5571V22.7904C4.71423 22.0476 8.1809 10.4714 8.98566 10.4714" stroke="#3D3D3D" stroke-width="2" stroke-miterlimit="10"/>
<path d="M5.95239 10.2857H20.8095" stroke="#3D3D3D" stroke-width="2" stroke-miterlimit="10"/>
<path d="M16.8476 1H9.91424C8.36662 1 7.19043 2.17619 7.19043 3.72381V7.80952H19.5714V3.72381C19.5714 2.17619 18.3952 1 16.8476 1Z" fill="#8DCEA8"/>
<path d="M16.8476 1H9.91424C8.36662 1 7.19043 2.17619 7.19043 3.72381V7.80952H19.5714V3.72381C19.5714 2.17619 18.3952 1 16.8476 1Z" stroke="#3D3D3D" stroke-width="2" stroke-miterlimit="10"/>
<path d="M9.04761 7.8095V5.33331" stroke="#3D3D3D" stroke-width="2" stroke-miterlimit="10"/>
<path d="M12.1428 7.8095V5.33331" stroke="#3D3D3D" stroke-width="2" stroke-miterlimit="10"/>
<path d="M14.6191 7.8095V5.33331" stroke="#3D3D3D" stroke-width="2" stroke-miterlimit="10"/>
<path d="M17.7142 7.8095V5.33331" stroke="#3D3D3D" stroke-width="2" stroke-miterlimit="10"/>
</svg>
