<svg width="58" height="51" viewBox="0 0 58 51" fill="none" xmlns="http://www.w3.org/2000/svg">
<path d="M5.4375 0C2.43555 0 0 2.44754 0 5.46429V45.5357C0 48.5525 2.43555 51 5.4375 51H52.5625C55.5645 51 58 48.5525 58 45.5357V5.46429C58 2.44754 55.5645 0 52.5625 0H5.4375ZM5.4375 3.64286H17.4453C17.8191 3.64286 18.125 3.95022 18.125 4.32589V6.60268C18.125 6.97835 17.8191 7.28571 17.4453 7.28571H4.30469C3.93086 7.28571 3.625 6.97835 3.625 6.60268V5.46429C3.625 4.4625 4.44063 3.64286 5.4375 3.64286ZM53.6953 14.5714H4.30469C3.93086 14.5714 3.625 14.2641 3.625 13.8884V9.79018C3.625 9.41451 3.93086 9.10714 4.30469 9.10714H19.9375L23.3586 3.95022C23.4832 3.7567 23.6984 3.64286 23.925 3.64286H52.5625C53.5594 3.64286 54.375 4.4625 54.375 5.46429V13.8884C54.375 14.2641 54.0691 14.5714 53.6953 14.5714ZM29 44.625C21.5008 44.625 15.4062 38.5004 15.4062 30.9643C15.4062 23.4281 21.5008 17.3036 29 17.3036C36.4992 17.3036 42.5938 23.4281 42.5938 30.9643C42.5938 38.5004 36.4992 44.625 29 44.625ZM29 20.9464C23.5059 20.9464 19.0312 25.4431 19.0312 30.9643C19.0312 36.4855 23.5059 40.9821 29 40.9821C34.4941 40.9821 38.9688 36.4855 38.9688 30.9643C38.9688 25.4431 34.4941 20.9464 29 20.9464ZM23.5625 32.7857C22.5656 32.7857 21.75 31.9661 21.75 30.9643C21.75 26.9458 25.0012 23.6786 29 23.6786C29.9969 23.6786 30.8125 24.4982 30.8125 25.5C30.8125 26.5018 29.9969 27.3214 29 27.3214C27.0063 27.3214 25.375 28.9607 25.375 30.9643C25.375 31.9661 24.5594 32.7857 23.5625 32.7857Z" fill="black"/>
</svg>
