<svg width="36" height="65" viewBox="0 0 36 65" fill="none" xmlns="http://www.w3.org/2000/svg">
<path d="M34.624 47.8028H1.12598V63.8342H34.624V47.8028Z" fill="#00ACEA"/>
<path d="M34.624 8.53607V47.8028H1.12598V8.53607H10.5758H24.5099H34.624Z" fill="#00EFD1"/>
<path d="M24.5099 8.32768V8.53609H10.5758V8.32768V1.16602H24.5099V8.32768Z" fill="#FEDB41"/>
<path d="M1.12598 65H34.624C34.9226 65 35.2091 64.8772 35.4202 64.6585C35.6314 64.4399 35.75 64.1433 35.75 63.8342V8.53599C35.75 7.89196 35.2458 7.43274 34.624 7.43274H25.6162V1.16593C25.6183 1.0139 25.5913 0.862936 25.5368 0.721786C25.4822 0.580636 25.4011 0.452107 25.2982 0.343653C25.1953 0.2352 25.0726 0.148978 24.9373 0.0899875C24.802 0.0309968 24.6567 0.000410884 24.5099 3.55873e-06H10.5758C10.2751 -0.000759419 9.98626 0.12119 9.7718 0.339427C9.55735 0.557664 9.43458 0.854612 9.43013 1.16593V7.43274H1.12598C0.504159 7.43274 0 7.89196 0 8.53599V63.8342C0 64.1433 0.118629 64.4399 0.329792 64.6585C0.540955 64.8772 0.827356 65 1.12598 65ZM11.6821 2.33185H23.3642V7.43274H11.6821V2.33185ZM2.25197 9.7646H33.498V46.6368H2.25197V9.7646ZM33.498 48.9686V62.6682H2.25197V48.9686H33.498Z" fill="#083863"/>
<path d="M28.3185 30.2781C26.9472 28.8577 25.3191 27.731 23.5271 26.9623C21.7352 26.1935 19.8146 25.7979 17.875 25.7979C15.9354 25.7979 14.0147 26.1935 12.2228 26.9623C10.4309 27.731 8.80276 28.8577 7.43145 30.2781C7.32692 30.3864 7.24401 30.5149 7.18745 30.6564C7.13088 30.7978 7.10178 30.9495 7.10181 31.1026C7.10184 31.2557 7.13099 31.4073 7.18759 31.5488C7.24421 31.6902 7.32714 31.8187 7.43174 31.927C7.53634 32.0353 7.6605 32.121 7.79707 32.1796C7.93371 32.2382 8.08013 32.2683 8.22802 32.2683C8.3759 32.2683 8.52232 32.2381 8.65889 32.1795C8.79553 32.1209 8.91962 32.035 9.02415 31.9267C10.1863 30.723 11.5661 29.7682 13.0847 29.1168C14.6033 28.4653 16.2309 28.13 17.8747 28.13C19.5184 28.13 21.1461 28.4653 22.6647 29.1168C24.1832 29.7682 25.563 30.723 26.7252 31.9267C26.8297 32.035 26.9539 32.121 27.0905 32.1796C27.2271 32.2383 27.3735 32.2685 27.5214 32.2685C27.6694 32.2686 27.8158 32.2385 27.9524 32.1799C28.0891 32.1214 28.2133 32.0355 28.3179 31.9273C28.4225 31.819 28.5055 31.6905 28.5621 31.5491C28.6188 31.4076 28.648 31.256 28.648 31.1028C28.6481 30.9497 28.619 30.798 28.5625 30.6565C28.5059 30.515 28.423 30.3864 28.3185 30.2781Z" fill="#083863"/>
<path d="M10.5693 33.5265C10.4647 33.6348 10.3818 33.7634 10.3252 33.9048C10.2686 34.0463 10.2395 34.1979 10.2395 34.351C10.2395 34.5041 10.2686 34.6558 10.3252 34.7971C10.3818 34.9386 10.4647 35.0672 10.5693 35.1754C10.6738 35.2837 10.798 35.3696 10.9346 35.4282C11.0712 35.4867 11.2176 35.5169 11.3655 35.5169C11.5134 35.5169 11.6598 35.4867 11.7964 35.4282C11.933 35.3696 12.0572 35.2837 12.1617 35.1754C13.6782 33.6087 15.7328 32.7289 17.8751 32.7289C20.0173 32.7289 22.072 33.6087 23.5885 35.1754C23.6931 35.2837 23.8171 35.3696 23.9538 35.4282C24.0904 35.4867 24.2368 35.5169 24.3847 35.5169C24.5325 35.5169 24.679 35.4867 24.8156 35.4282C24.9522 35.3696 25.0763 35.2837 25.1809 35.1754C25.2855 35.0672 25.3684 34.9386 25.4249 34.7971C25.4816 34.6558 25.5107 34.5041 25.5107 34.351C25.5107 34.1979 25.4816 34.0463 25.4249 33.9048C25.3684 33.7634 25.2855 33.6348 25.1809 33.5265C23.2417 31.5231 20.6144 30.398 17.8751 30.398C15.1358 30.398 12.5084 31.5231 10.5693 33.5265Z" fill="#083863"/>
<path d="M17.8749 35.605C17.1789 35.6031 16.4894 35.7442 15.8463 36.02C15.2033 36.296 14.6195 36.7011 14.1287 37.2122C14.0241 37.3205 13.9411 37.4491 13.8846 37.5905C13.828 37.732 13.7989 37.8837 13.799 38.0368C13.799 38.1899 13.8281 38.3416 13.8847 38.483C13.9413 38.6245 14.0243 38.753 14.1289 38.8613C14.3401 39.08 14.6265 39.2028 14.9252 39.2028C15.0731 39.2027 15.2195 39.1726 15.3562 39.1139C15.4928 39.0554 15.617 38.9694 15.7215 38.8611C16.0043 38.5681 16.34 38.3356 16.7096 38.1771C17.0792 38.0185 17.4753 37.9369 17.8754 37.9369C18.2754 37.9369 18.6716 38.0185 19.0411 38.1771C19.4107 38.3356 19.7465 38.5681 20.0292 38.8611C20.2404 39.0798 20.5268 39.2026 20.8254 39.2026C21.1241 39.2026 21.4105 39.0798 21.6216 38.8611C21.8328 38.6425 21.9515 38.3459 21.9515 38.0367C21.9515 37.7274 21.8328 37.4309 21.6216 37.2122C21.1308 36.7011 20.5469 36.2959 19.9038 36.02C19.2607 35.7441 18.5711 35.603 17.8749 35.605Z" fill="#083863"/>
</svg>
