<svg width="35" height="65" viewBox="0 0 35 65" fill="none" xmlns="http://www.w3.org/2000/svg">
<path d="M26 48.75C28.0302 47.3969 29.25 45.1176 29.25 42.6768V35.75L32.9442 29.8393C34.0698 28.0388 34.6667 25.9566 34.6667 23.8333H0C0 25.9566 0.596917 28.0388 1.7225 29.8393L5.41667 35.75V42.6768C5.41667 45.1176 6.6365 47.3958 8.66667 48.75H26Z" fill="#BDCAD6"/>
<path d="M1.08337 23.8333V16.25C1.08337 7.27567 8.35904 0 17.3334 0C26.3077 0 33.5834 7.27567 33.5834 16.25V23.8333H1.08337Z" fill="#84BABF"/>
<path d="M25.6002 2.27823C23.7152 1.5134 21.6591 1.08331 19.5 1.08331C10.5257 1.08331 3.25 8.35898 3.25 17.3333V23.8333H33.5833V16.25C33.5833 10.2981 30.3734 5.10898 25.6002 2.27823Z" fill="#9DCAD1"/>
<path d="M29.25 42.6768V35.75L32.9441 29.8393C34.0697 28.0377 34.6666 25.9566 34.6666 23.8333H2.16663C2.16663 25.9566 2.76354 28.0377 3.88913 29.8393L7.58329 35.75V42.6768C7.58329 45.1176 8.80313 47.3958 10.8333 48.75H26C28.0301 47.3958 29.25 45.1176 29.25 42.6768Z" fill="#CFD8E2"/>
<path d="M26 48.75V53.0833H23.8333V60.6667L22.5333 62.4C21.3059 64.0369 19.3797 65 17.3333 65C15.2869 65 13.3607 64.0369 12.1333 62.4L10.8333 60.6667V53.0833H8.66663V48.75H26Z" fill="#9298A3"/>
<path d="M23.8334 55.25H10.8334V57.4167H23.8334V55.25Z" fill="#E6E6E6"/>
<path d="M12.9999 48.75H10.8333V34.9223L7.69702 28.6509L9.6351 27.6813L12.8851 34.1813C12.9609 34.3319 12.9999 34.4988 12.9999 34.6667V48.75Z" fill="#A3AAB5"/>
<path d="M18.4167 28.1667H16.25V48.75H18.4167V28.1667Z" fill="#A3AAB5"/>
<path d="M23.8333 48.75H21.6666V34.6667C21.6666 34.4988 21.7056 34.3319 21.7804 34.1824L25.0304 27.6824L26.9685 28.652L23.8333 34.9224V48.75Z" fill="#A3AAB5"/>
<path d="M8.66667 13H6.5C6.5 8.2214 10.3881 4.33331 15.1667 4.33331V6.49998C11.5819 6.49998 8.66667 9.41523 8.66667 13Z" fill="#CCE8EA"/>
<path d="M8.66667 15.1667H6.5V17.3334H8.66667V15.1667Z" fill="#CCE8EA"/>
<path d="M10.8334 59.5833V60.6666L11.6459 61.75H23.0209L23.8334 60.6666V59.5833H10.8334Z" fill="#E6E6E6"/>
</svg>
