<svg width="88" height="88" viewBox="0 0 88 88" fill="none" xmlns="http://www.w3.org/2000/svg">
<path d="M67.375 15.125H20.625C17.5874 15.125 15.125 17.5874 15.125 20.625V81.125C15.125 84.1626 17.5874 86.625 20.625 86.625H67.375C70.4126 86.625 72.875 84.1626 72.875 81.125V20.625C72.875 17.5874 70.4126 15.125 67.375 15.125Z" fill="#DFE1F1"/>
<path d="M50.875 9.625V8.25C50.875 7.34716 50.6972 6.45316 50.3517 5.61905C50.0062 4.78494 49.4998 4.02704 48.8614 3.38864C48.223 2.75024 47.4651 2.24383 46.6309 1.89833C45.7968 1.55283 44.9028 1.375 44 1.375C42.1766 1.375 40.428 2.09933 39.1386 3.38864C37.8493 4.67795 37.125 6.42664 37.125 8.25V9.625H34.375C32.9163 9.625 31.5174 10.2045 30.4859 11.2359C29.4545 12.2674 28.875 13.6663 28.875 15.125C28.875 16.5837 29.4545 17.9826 30.4859 19.0141C31.5174 20.0455 32.9163 20.625 34.375 20.625H53.625C55.0837 20.625 56.4826 20.0455 57.5141 19.0141C58.5455 17.9826 59.125 16.5837 59.125 15.125C59.125 13.6663 58.5455 12.2674 57.5141 11.2359C56.4826 10.2045 55.0837 9.625 53.625 9.625H50.875ZM39.875 48.125V50.875C39.875 51.6043 39.5853 52.3038 39.0695 52.8195C38.5538 53.3353 37.8543 53.625 37.125 53.625H26.125C25.3957 53.625 24.6962 53.3353 24.1805 52.8195C23.6647 52.3038 23.375 51.6043 23.375 50.875V39.875C23.375 39.1457 23.6647 38.4462 24.1805 37.9305C24.6962 37.4147 25.3957 37.125 26.125 37.125H37.125M39.875 72.875V75.625C39.875 76.3543 39.5853 77.0538 39.0695 77.5695C38.5538 78.0853 37.8543 78.375 37.125 78.375H26.125C25.3957 78.375 24.6962 78.0853 24.1805 77.5695C23.6647 77.0538 23.375 76.3543 23.375 75.625V64.625C23.375 63.8957 23.6647 63.1962 24.1805 62.6805C24.6962 62.1647 25.3957 61.875 26.125 61.875H37.125" fill="#DFE1F1"/>
<path d="M50.875 9.625V8.25C50.875 7.34716 50.6972 6.45316 50.3517 5.61905C50.0062 4.78494 49.4998 4.02704 48.8614 3.38864C48.223 2.75024 47.4651 2.24383 46.6309 1.89833C45.7968 1.55283 44.9028 1.375 44 1.375C42.1766 1.375 40.428 2.09933 39.1386 3.38864C37.8493 4.67795 37.125 6.42664 37.125 8.25V9.625H34.375C32.9163 9.625 31.5174 10.2045 30.4859 11.2359C29.4545 12.2674 28.875 13.6663 28.875 15.125C28.875 16.5837 29.4545 17.9826 30.4859 19.0141C31.5174 20.0455 32.9163 20.625 34.375 20.625H53.625C55.0837 20.625 56.4826 20.0455 57.5141 19.0141C58.5455 17.9826 59.125 16.5837 59.125 15.125C59.125 13.6663 58.5455 12.2674 57.5141 11.2359C56.4826 10.2045 55.0837 9.625 53.625 9.625H50.875Z" fill="#AFAEB3"/>
<path d="M39.875 48.125V50.875C39.875 51.6043 39.5853 52.3038 39.0695 52.8195C38.5538 53.3353 37.8543 53.625 37.125 53.625H26.125C25.3957 53.625 24.6962 53.3353 24.1805 52.8195C23.6647 52.3038 23.375 51.6043 23.375 50.875V39.875C23.375 39.1457 23.6647 38.4462 24.1805 37.9305C24.6962 37.4147 25.3957 37.125 26.125 37.125H37.125C37.8543 37.125 38.5538 37.4147 39.0695 37.9305C39.5853 38.4462 39.875 39.1457 39.875 39.875V48.125Z" fill="white"/>
<path d="M33 49.5962C32.8193 49.5966 32.6403 49.5613 32.4733 49.4924C32.3062 49.4235 32.1544 49.3224 32.0265 49.1947L27.8025 44.9735C27.552 44.7142 27.4134 44.3668 27.4166 44.0063C27.4197 43.6458 27.5643 43.3009 27.8192 43.046C28.0742 42.7911 28.419 42.6465 28.7796 42.6433C29.1401 42.6402 29.4874 42.7788 29.7467 43.0292L33 46.277L41.7505 37.5265C42.0098 37.276 42.3571 37.1374 42.7177 37.1406C43.0782 37.1437 43.423 37.2883 43.678 37.5432C43.9329 37.7982 44.0775 38.1431 44.0807 38.5036C44.0838 38.8641 43.9452 39.2114 43.6947 39.4707L33.9707 49.192C33.7135 49.45 33.3643 49.5954 33 49.5962Z" fill="#D2E79C"/>
<path d="M39.875 72.875V75.625C39.875 76.3543 39.5853 77.0538 39.0695 77.5695C38.5538 78.0853 37.8543 78.375 37.125 78.375H26.125C25.3957 78.375 24.6962 78.0853 24.1805 77.5695C23.6647 77.0538 23.375 76.3543 23.375 75.625V64.625C23.375 63.8957 23.6647 63.1962 24.1805 62.6805C24.6962 62.1647 25.3957 61.875 26.125 61.875H37.125C37.8543 61.875 38.5538 62.1647 39.0695 62.6805C39.5853 63.1962 39.875 63.8957 39.875 64.625V72.875Z" fill="white"/>
<path d="M33 74.3463C32.8193 74.3466 32.6403 74.3113 32.4733 74.2424C32.3062 74.1735 32.1544 74.0724 32.0265 73.9448L27.8025 69.7235C27.552 69.4642 27.4134 69.1169 27.4166 68.7563C27.4197 68.3958 27.5643 68.051 27.8192 67.796C28.0742 67.5411 28.419 67.3965 28.7796 67.3933C29.1401 67.3902 29.4874 67.5288 29.7467 67.7793L33 71.027L41.7505 62.2765C42.0098 62.026 42.3571 61.8875 42.7177 61.8906C43.0782 61.8937 43.423 62.0383 43.678 62.2933C43.9329 62.5482 44.0775 62.8931 44.0807 63.2536C44.0838 63.6141 43.9452 63.9614 43.6947 64.2208L33.9707 73.942C33.7135 74.2001 33.3643 74.3455 33 74.3463Z" fill="#D2E79C"/>
<path d="M50.875 30.25H34.375C34.0103 30.25 33.6606 30.1051 33.4027 29.8473C33.1449 29.5894 33 29.2397 33 28.875C33 28.5103 33.1449 28.1606 33.4027 27.9027C33.6606 27.6449 34.0103 27.5 34.375 27.5H50.875C51.2397 27.5 51.5894 27.6449 51.8473 27.9027C52.1051 28.1606 52.25 28.5103 52.25 28.875C52.25 29.2397 52.1051 29.5894 51.8473 29.8473C51.5894 30.1051 51.2397 30.25 50.875 30.25ZM64.625 44H48.125C47.7603 44 47.4106 43.8551 47.1527 43.5973C46.8949 43.3394 46.75 42.9897 46.75 42.625C46.75 42.2603 46.8949 41.9106 47.1527 41.6527C47.4106 41.3949 47.7603 41.25 48.125 41.25H64.625C64.9897 41.25 65.3394 41.3949 65.5973 41.6527C65.8551 41.9106 66 42.2603 66 42.625C66 42.9897 65.8551 43.3394 65.5973 43.5973C65.3394 43.8551 64.9897 44 64.625 44ZM64.625 49.5H48.125C47.7603 49.5 47.4106 49.3551 47.1527 49.0973C46.8949 48.8394 46.75 48.4897 46.75 48.125C46.75 47.7603 46.8949 47.4106 47.1527 47.1527C47.4106 46.8949 47.7603 46.75 48.125 46.75H64.625C64.9897 46.75 65.3394 46.8949 65.5973 47.1527C65.8551 47.4106 66 47.7603 66 48.125C66 48.4897 65.8551 48.8394 65.5973 49.0973C65.3394 49.3551 64.9897 49.5 64.625 49.5ZM64.625 68.75H48.125C47.7603 68.75 47.4106 68.6051 47.1527 68.3473C46.8949 68.0894 46.75 67.7397 46.75 67.375C46.75 67.0103 46.8949 66.6606 47.1527 66.4027C47.4106 66.1449 47.7603 66 48.125 66H64.625C64.9897 66 65.3394 66.1449 65.5973 66.4027C65.8551 66.6606 66 67.0103 66 67.375C66 67.7397 65.8551 68.0894 65.5973 68.3473C65.3394 68.6051 64.9897 68.75 64.625 68.75ZM64.625 74.25H48.125C47.7603 74.25 47.4106 74.1051 47.1527 73.8473C46.8949 73.5894 46.75 73.2397 46.75 72.875C46.75 72.5103 46.8949 72.1606 47.1527 71.9027C47.4106 71.6449 47.7603 71.5 48.125 71.5H64.625C64.9897 71.5 65.3394 71.6449 65.5973 71.9027C65.8551 72.1606 66 72.5103 66 72.875C66 73.2397 65.8551 73.5894 65.5973 73.8473C65.3394 74.1051 64.9897 74.25 64.625 74.25Z" fill="white"/>
</svg>
