<svg width="77" height="77" viewBox="0 0 77 77" fill="none" xmlns="http://www.w3.org/2000/svg">
<g clip-path="url(#clip0_6_54)">
<path d="M42.9275 42.9275C39.5604 46.2949 35.2703 48.5882 30.5997 49.5174C25.9292 50.4466 21.088 49.9699 16.6884 48.1477C12.2888 46.3254 8.5284 43.2394 5.88269 39.2799C3.23699 35.3204 1.82485 30.6653 1.82485 25.9033C1.82485 21.1412 3.23699 16.4861 5.88269 12.5266C8.5284 8.56714 12.2888 5.48114 16.6884 3.65888C21.088 1.83662 25.9292 1.35994 30.5997 2.28912C35.2703 3.21831 39.5604 5.51162 42.9275 8.87905C47.4265 13.4027 49.9519 19.5233 49.9519 25.9033C49.9519 32.2833 47.4265 38.4039 42.9275 42.9275Z" fill="#82C8EC"/>
<path d="M38.9091 38.9091C38.8162 39.0099 38.7111 39.0989 38.5963 39.1738V39.1978C35.1781 42.4773 30.6233 44.3065 25.8864 44.302C21.1495 44.2975 16.5981 42.4597 13.1862 39.1738C13.0841 39.0922 12.9876 39.0037 12.8975 38.9091C10.3251 36.3367 8.57317 33.0594 7.86339 29.4914C7.15361 25.9234 7.51781 22.225 8.90993 18.864C10.3021 15.503 12.6596 12.6303 15.6844 10.6092C18.7092 8.58808 22.2654 7.50931 25.9033 7.50931C29.5412 7.50931 33.0974 8.58808 36.1222 10.6092C39.147 12.6303 41.5045 15.503 42.8966 18.864C44.2887 22.225 44.6529 25.9234 43.9432 29.4914C43.2334 33.0594 41.4815 36.3367 38.9091 38.9091Z" fill="#C9E7F7"/>
<path d="M43.62 48.7268L48.7244 43.6224C49.1756 43.1711 49.7877 42.9176 50.4259 42.9176C51.064 42.9176 51.6761 43.1711 52.1273 43.6224L73.3958 64.8908C74.5239 66.019 75.1577 67.5491 75.1577 69.1445C75.1577 70.74 74.5239 72.2701 73.3958 73.3982C72.2676 74.5264 70.7375 75.1601 69.1421 75.1601C67.5467 75.1601 66.0166 74.5264 64.8884 73.3982L43.62 52.1298C43.1687 51.6785 42.9152 51.0665 42.9152 50.4283C42.9152 49.7901 43.1687 49.1781 43.62 48.7268Z" fill="#57565C"/>
<path d="M45.3213 40.2193L40.2169 45.3238L43.6199 48.7267L48.7243 43.6223L45.3213 40.2193Z" fill="#D9D8DA"/>
<path d="M38.5963 39.1737V39.1978C35.1781 42.4773 30.6233 44.3065 25.8864 44.302C21.1495 44.2975 16.5981 42.4597 13.1862 39.1737C13.3395 37.3128 14.1865 35.5774 15.5593 34.3116C16.932 33.0459 18.7303 32.3421 20.5975 32.34H31.2091C33.0736 32.3432 34.8687 33.0479 36.2374 34.3141C37.6061 35.5802 38.4482 37.3151 38.5963 39.1737Z" fill="#55BB8C"/>
<path d="M30.1479 29.5199V30.9347C30.1479 31.4925 30.0381 32.0447 29.8246 32.56C29.6112 33.0753 29.2984 33.5435 28.904 33.9378C28.5096 34.3322 28.0414 34.6451 27.5261 34.8585C27.0109 35.0719 26.4586 35.1818 25.9009 35.1818C24.7753 35.1811 23.6961 34.7337 22.9002 33.9378C22.1043 33.142 21.6569 32.0627 21.6562 30.9371V29.5223L30.1479 29.5199Z" fill="#FCC37A"/>
<path d="M34.3853 23.4369C34.3853 25.6865 33.4917 27.8439 31.901 29.4346C30.3103 31.0253 28.1529 31.9189 25.9033 31.9189C23.6537 31.9189 21.4963 31.0253 19.9056 29.4346C18.3149 27.8439 17.4212 25.6865 17.4212 23.4369C17.4125 23.1873 17.4286 22.9374 17.4694 22.6909C17.6494 20.6002 18.5997 18.6508 20.1357 17.221C21.6718 15.7912 23.6841 14.9829 25.7824 14.953C27.8807 14.923 29.9154 15.6734 31.4916 17.0588C33.0679 18.4441 34.0734 20.3655 34.3131 22.4503C34.362 22.7769 34.3861 23.1067 34.3853 23.4369Z" fill="#FFD9AA"/>
<path d="M34.3131 22.4503L33.1822 22.0894L26.2281 20.1163C25.1958 19.822 24.0947 19.8813 23.1 20.2847L18.6244 22.0894L17.4694 22.6909C17.6494 20.6002 18.5997 18.6508 20.1357 17.221C21.6718 15.7912 23.6841 14.9829 25.7824 14.953C27.8807 14.923 29.9154 15.6734 31.4916 17.0588C33.0679 18.4441 34.0734 20.3655 34.3131 22.4503Z" fill="#57565C"/>
</g>
<defs>
<clipPath id="clip0_6_54">
<rect width="77" height="77" fill="white"/>
</clipPath>
</defs>
</svg>
