<svg width="51" height="51" viewBox="0 0 51 51" fill="none" xmlns="http://www.w3.org/2000/svg">
<path d="M51 47.4702L34.2884 30.5271C36.5652 27.3503 37.9199 23.4447 37.9199 19.2318C37.9199 8.63095 29.4161 1.12534e-05 18.9656 1.12534e-05C8.50379 -0.0113752 0 8.61957 0 19.2204C0 29.8212 8.50379 38.4521 18.9542 38.4521C23.485 38.4521 27.6402 36.8352 30.9074 34.1366L47.5279 51L51 47.4702ZM18.9542 34.0114C10.9172 34.0114 4.37143 27.3731 4.37143 19.2204C4.37143 11.0677 10.9172 4.42935 18.9542 4.42935C26.9913 4.42935 33.5371 11.0677 33.5371 19.2204C33.5371 27.3731 27.0027 34.0114 18.9542 34.0114Z" fill="#35507E"/>
</svg>
